# xmcd
#
# Track frame offsets: 
#        182
#        10657
#        20207
#        30715
#        45680
#        58612
#        72562
#        86535
#        98355
#        116640
#        148980
#        164312
#        192627
#        203422
#        213187
#        230747
#        242750
#        251957
#        261175
#        272317
#        282222
#        294065
#
# Disc length: 4078 seconds
#
# Revision: 3
# Processed by: cddbd v1.5.2PL0 Copyright (c) Steve Scherf et al.
# Submitted via: ExactAudioCopy v1.0b3
#
DISCID=410fec16
DTITLE=Buddy Guy - The Complete Chess Studio Recordings Disc 1
DYEAR=1992
DGENRE=Blues
TTITLE0=First Time I Met The Blues
TTITLE1=Slop Around
TTITLE2=I Got My Eyes On You
TTITLE3=Broken Hearted Blues
TTITLE4=Let Me Love You Baby
TTITLE5=I Got A Strange Feeling
TTITLE6=Gully Hully
TTITLE7=Ten Years Ago
TTITLE8=Watch Yourself
TTITLE9=Stone Crazy
TTITLE10=Skippin'
TTITLE11=I Found A True Love
TTITLE12=Hard But It's Fair
TTITLE13=Baby (Baby, Baby, Baby)
TTITLE14=When My Left Eye Jumps
TTITLE15=That's It
TTITLE16=The Treasure Untold
TTITLE17=American Bandstand (aka American Bandstand Thing)
TTITLE18=No Lie
TTITLE19=$100 Bill
TTITLE20=My Love Is Real
TTITLE21=Buddy's Boogie
EXTD=
EXTT0=
EXTT1=
EXTT2=
EXTT3=
EXTT4=
EXTT5=
EXTT6=
EXTT7=
EXTT8=
EXTT9=
EXTT10=
EXTT11=
EXTT12=
EXTT13=
EXTT14=
EXTT15=
EXTT16=
EXTT17=
EXTT18=
EXTT19=
EXTT20=
EXTT21=
PLAYORDER=
